<?xml version="1.0" standalone="no"?>
<!DOCTYPE svg PUBLIC "-//W3C//DTD SVG 20010904//EN"
 "http://www.w3.org/TR/2001/REC-SVG-20010904/DTD/svg10.dtd">
<svg version="1.0" xmlns="http://www.w3.org/2000/svg"
 width="96.000000pt" height="96.000000pt" viewBox="0 0 96.000000 96.000000"
 preserveAspectRatio="xMidYMid meet">

<g transform="translate(0.000000,96.000000) scale(0.100000,-0.100000)"
fill="#000000" stroke="none">
<path d="M847 884 c-4 -4 -7 -40 -7 -80 0 -62 -3 -77 -24 -101 -17 -20 -22
-34 -16 -44 8 -11 13 -12 30 -1 40 25 20 -10 -47 -80 -125 -130 -271 -209
-478 -261 -106 -26 -129 -35 -138 -54 -13 -30 8 -54 72 -82 227 -97 516 7 626
228 37 73 47 140 35 235 -6 45 -14 117 -18 160 -6 73 -17 97 -35 80z m10 -353
c-12 -140 -136 -273 -301 -323 -55 -17 -85 -20 -160 -16 -97 6 -163 26 -163
50 0 11 30 23 102 40 189 47 355 136 465 249 30 32 57 58 59 58 2 1 1 -26 -2
-58z"/>
<path d="M60 635 c-21 -25 -2 -65 65 -132 70 -69 171 -125 233 -127 57 -2 48
20 -19 43 -74 25 -140 66 -192 119 -32 32 -36 41 -24 51 11 9 33 7 98 -9 151
-36 289 -45 412 -27 119 18 127 21 127 44 0 13 -8 14 -42 9 -214 -32 -319 -28
-508 20 -110 28 -133 29 -150 9z"/>
</g>
</svg>
